%TF.GenerationSoftware,KiCad,Pcbnew,6.0.9*%
%TF.CreationDate,2023-01-08T13:44:57+01:00*%
%TF.ProjectId,usd-mock-bob,7573642d-6d6f-4636-9b2d-626f622e6b69,0.1.0*%
%TF.SameCoordinates,Original*%
%TF.FileFunction,Copper,L2,Bot*%
%TF.FilePolarity,Positive*%
%FSLAX46Y46*%
G04 Gerber Fmt 4.6, Leading zero omitted, Abs format (unit mm)*
G04 Created by KiCad (PCBNEW 6.0.9) date 2023-01-08 13:44:57*
%MOMM*%
%LPD*%
G01*
G04 APERTURE LIST*
G04 Aperture macros list*
%AMRoundRect*
0 Rectangle with rounded corners*
0 $1 Rounding radius*
0 $2 $3 $4 $5 $6 $7 $8 $9 X,Y pos of 4 corners*
0 Add a 4 corners polygon primitive as box body*
4,1,4,$2,$3,$4,$5,$6,$7,$8,$9,$2,$3,0*
0 Add four circle primitives for the rounded corners*
1,1,$1+$1,$2,$3*
1,1,$1+$1,$4,$5*
1,1,$1+$1,$6,$7*
1,1,$1+$1,$8,$9*
0 Add four rect primitives between the rounded corners*
20,1,$1+$1,$2,$3,$4,$5,0*
20,1,$1+$1,$4,$5,$6,$7,0*
20,1,$1+$1,$6,$7,$8,$9,0*
20,1,$1+$1,$8,$9,$2,$3,0*%
G04 Aperture macros list end*
%TA.AperFunction,SMDPad,CuDef*%
%ADD10RoundRect,0.200000X-0.200000X-1.250000X0.200000X-1.250000X0.200000X1.250000X-0.200000X1.250000X0*%
%TD*%
%TA.AperFunction,SMDPad,CuDef*%
%ADD11RoundRect,0.200000X-0.200000X-1.400000X0.200000X-1.400000X0.200000X1.400000X-0.200000X1.400000X0*%
%TD*%
%TA.AperFunction,ComponentPad*%
%ADD12O,1.700000X1.700000*%
%TD*%
%TA.AperFunction,ComponentPad*%
%ADD13R,1.700000X1.700000*%
%TD*%
%TA.AperFunction,Conductor*%
%ADD14C,0.152400*%
%TD*%
G04 APERTURE END LIST*
D10*
%TO.P,J2,1,DAT2*%
%TO.N,/DAT2*%
X143849991Y-83550000D03*
%TO.P,J2,2,DAT3/CD*%
%TO.N,/DAT3*%
X142749993Y-83550000D03*
%TO.P,J2,3,CMD*%
%TO.N,/CMD*%
X141649996Y-83550000D03*
D11*
%TO.P,J2,4,VDD*%
%TO.N,/VDD*%
X140549998Y-83400002D03*
D10*
%TO.P,J2,5,CLK*%
%TO.N,/CLK*%
X139450000Y-83550000D03*
D11*
%TO.P,J2,6,VSS*%
%TO.N,GND*%
X138350002Y-83400002D03*
D10*
%TO.P,J2,7,DAT0*%
%TO.N,/DAT0*%
X137250005Y-83550000D03*
%TO.P,J2,8,DAT1*%
%TO.N,/DAT1*%
X136150007Y-83550000D03*
%TD*%
D12*
%TO.P,J1,8,Pin_8*%
%TO.N,/DAT1*%
X137180000Y-100265000D03*
%TO.P,J1,7,Pin_7*%
%TO.N,/DAT0*%
X137180000Y-97725000D03*
%TO.P,J1,6,Pin_6*%
%TO.N,GND*%
X139720000Y-100265000D03*
%TO.P,J1,5,Pin_5*%
%TO.N,/CLK*%
X139720000Y-97725000D03*
%TO.P,J1,4,Pin_4*%
%TO.N,/VDD*%
X142260000Y-100265000D03*
%TO.P,J1,3,Pin_3*%
%TO.N,/CMD*%
X142260000Y-97725000D03*
%TO.P,J1,2,Pin_2*%
%TO.N,/DAT3*%
X144800000Y-100265000D03*
D13*
%TO.P,J1,1,Pin_1*%
%TO.N,/DAT2*%
X144800000Y-97725000D03*
%TD*%
D14*
%TO.N,/VDD*%
X141000000Y-96500000D02*
X140549998Y-96049998D01*
X142260000Y-100265000D02*
X140997500Y-99002500D01*
%TO.N,/DAT0*%
X137180000Y-97725000D02*
X137180000Y-96500000D01*
%TO.N,/DAT1*%
X136000000Y-96500000D02*
X136000000Y-99085000D01*
%TO.N,/CLK*%
X139720000Y-97725000D02*
X139720000Y-96500000D01*
%TO.N,/VDD*%
X140997500Y-99002500D02*
X140997500Y-96502500D01*
%TO.N,/CMD*%
X142260000Y-96500000D02*
X141649996Y-95889996D01*
%TO.N,/CLK*%
X139720000Y-96500000D02*
X139450000Y-96230000D01*
%TO.N,/DAT1*%
X136150007Y-96349993D02*
X136000000Y-96500000D01*
%TO.N,/DAT3*%
X143500000Y-96500000D02*
X143500000Y-99000000D01*
%TO.N,/CMD*%
X142260000Y-97725000D02*
X142260000Y-96500000D01*
%TO.N,/DAT2*%
X144800000Y-96500000D02*
X143849991Y-95549991D01*
%TO.N,/DAT1*%
X136000000Y-99085000D02*
X137180000Y-100265000D01*
%TO.N,/DAT3*%
X142749993Y-95749993D02*
X143500000Y-96500000D01*
%TO.N,/VDD*%
X140997500Y-96502500D02*
X141000000Y-96500000D01*
%TO.N,/DAT2*%
X144800000Y-97725000D02*
X144800000Y-96500000D01*
%TO.N,/DAT3*%
X143500000Y-99000000D02*
X143535000Y-99000000D01*
X143535000Y-99000000D02*
X144800000Y-100265000D01*
%TO.N,/DAT0*%
X137180000Y-96500000D02*
X137250005Y-96429995D01*
%TO.N,/DAT1*%
X136150007Y-83550000D02*
X136150007Y-96349993D01*
%TO.N,/DAT0*%
X137250005Y-96429995D02*
X137250005Y-83550000D01*
%TO.N,/CLK*%
X139450000Y-96230000D02*
X139450000Y-83550000D01*
%TO.N,/DAT2*%
X143849991Y-95549991D02*
X143849991Y-83550000D01*
%TO.N,/DAT3*%
X142749993Y-83550000D02*
X142749993Y-95749993D01*
%TO.N,/CMD*%
X141649996Y-95889996D02*
X141649996Y-83550000D01*
%TO.N,/VDD*%
X140549998Y-96049998D02*
X140549998Y-83400002D01*
%TD*%
%TA.AperFunction,Conductor*%
%TO.N,GND*%
G36*
X138419123Y-83293004D02*
G01*
X138465616Y-83346660D01*
X138477002Y-83399002D01*
X138477002Y-85299387D01*
X138481477Y-85314626D01*
X138482867Y-85315831D01*
X138490550Y-85317502D01*
X138586417Y-85317502D01*
X138593972Y-85317046D01*
X138666565Y-85308262D01*
X138682130Y-85304309D01*
X138798451Y-85258254D01*
X138813270Y-85249904D01*
X138876612Y-85201825D01*
X138942966Y-85176572D01*
X139012439Y-85191200D01*
X139027044Y-85200452D01*
X139027347Y-85200612D01*
X139034924Y-85206209D01*
X139043812Y-85209330D01*
X139052135Y-85213737D01*
X139050300Y-85217202D01*
X139092751Y-85247769D01*
X139118791Y-85313817D01*
X139119300Y-85325135D01*
X139119300Y-96210051D01*
X139118821Y-96221032D01*
X139116677Y-96245543D01*
X139115476Y-96259267D01*
X139125409Y-96296339D01*
X139127784Y-96307053D01*
X139134449Y-96344851D01*
X139139960Y-96354396D01*
X139141231Y-96357889D01*
X139142806Y-96361267D01*
X139145660Y-96371916D01*
X139151984Y-96380947D01*
X139151985Y-96380950D01*
X139167673Y-96403355D01*
X139173578Y-96412624D01*
X139192761Y-96445849D01*
X139215398Y-96464844D01*
X139222164Y-96470522D01*
X139230266Y-96477947D01*
X139275008Y-96522689D01*
X139309034Y-96585001D01*
X139303969Y-96655816D01*
X139261422Y-96712652D01*
X139243700Y-96723368D01*
X139242463Y-96723824D01*
X139068010Y-96827612D01*
X139063670Y-96831418D01*
X139063666Y-96831421D01*
X138959751Y-96922553D01*
X138915392Y-96961455D01*
X138789720Y-97120869D01*
X138787031Y-97125980D01*
X138787029Y-97125983D01*
X138774073Y-97150609D01*
X138695203Y-97300515D01*
X138635007Y-97494378D01*
X138611148Y-97695964D01*
X138624424Y-97898522D01*
X138625845Y-97904118D01*
X138625846Y-97904123D01*
X138646119Y-97983945D01*
X138674392Y-98095269D01*
X138676809Y-98100512D01*
X138714010Y-98181208D01*
X138759377Y-98279616D01*
X138762710Y-98284332D01*
X138870700Y-98437135D01*
X138876533Y-98445389D01*
X139021938Y-98587035D01*
X139190720Y-98699812D01*
X139196023Y-98702090D01*
X139196026Y-98702092D01*
X139284707Y-98740192D01*
X139377228Y-98779942D01*
X139450244Y-98796464D01*
X139569579Y-98823467D01*
X139569584Y-98823468D01*
X139575216Y-98824742D01*
X139580987Y-98824969D01*
X139580989Y-98824969D01*
X139640756Y-98827317D01*
X139778053Y-98832712D01*
X139878499Y-98818148D01*
X139973231Y-98804413D01*
X139973236Y-98804412D01*
X139978945Y-98803584D01*
X139984409Y-98801729D01*
X139984414Y-98801728D01*
X140165693Y-98740192D01*
X140165698Y-98740190D01*
X140171165Y-98738334D01*
X140200850Y-98721710D01*
X140245683Y-98696602D01*
X140348276Y-98639147D01*
X140410934Y-98587035D01*
X140440121Y-98562760D01*
X140460231Y-98546035D01*
X140525394Y-98517854D01*
X140595450Y-98529377D01*
X140648154Y-98576946D01*
X140666800Y-98642909D01*
X140666800Y-98982551D01*
X140666321Y-98993532D01*
X140662976Y-99031767D01*
X140672909Y-99068839D01*
X140675284Y-99079553D01*
X140681949Y-99117351D01*
X140687460Y-99126896D01*
X140688731Y-99130389D01*
X140690306Y-99133767D01*
X140693160Y-99144416D01*
X140699484Y-99153447D01*
X140699485Y-99153450D01*
X140715173Y-99175855D01*
X140721078Y-99185124D01*
X140740261Y-99218349D01*
X140748702Y-99225432D01*
X140748703Y-99225433D01*
X140769659Y-99243017D01*
X140777763Y-99250443D01*
X141215301Y-99687982D01*
X141249326Y-99750294D01*
X141244261Y-99821110D01*
X141238225Y-99834603D01*
X141237897Y-99835394D01*
X141235203Y-99840515D01*
X141175007Y-100034378D01*
X141151148Y-100235964D01*
X141164424Y-100438522D01*
X141165845Y-100444118D01*
X141165846Y-100444123D01*
X141186119Y-100523945D01*
X141214392Y-100635269D01*
X141216809Y-100640512D01*
X141254010Y-100721208D01*
X141299377Y-100819616D01*
X141416533Y-100985389D01*
X141420675Y-100989424D01*
X141472390Y-101039802D01*
X141561938Y-101127035D01*
X141730720Y-101239812D01*
X141736023Y-101242090D01*
X141736026Y-101242092D01*
X141911921Y-101317662D01*
X141917228Y-101319942D01*
X141976306Y-101333310D01*
X142109579Y-101363467D01*
X142109584Y-101363468D01*
X142115216Y-101364742D01*
X142120987Y-101364969D01*
X142120989Y-101364969D01*
X142180756Y-101367317D01*
X142318053Y-101372712D01*
X142418499Y-101358148D01*
X142513231Y-101344413D01*
X142513236Y-101344412D01*
X142518945Y-101343584D01*
X142524409Y-101341729D01*
X142524414Y-101341728D01*
X142705693Y-101280192D01*
X142705698Y-101280190D01*
X142711165Y-101278334D01*
X142888276Y-101179147D01*
X142896663Y-101172172D01*
X143039913Y-101053031D01*
X143044345Y-101049345D01*
X143174147Y-100893276D01*
X143233845Y-100786677D01*
X143270510Y-100721208D01*
X143270511Y-100721206D01*
X143273334Y-100716165D01*
X143275190Y-100710698D01*
X143275192Y-100710693D01*
X143336728Y-100529414D01*
X143336729Y-100529409D01*
X143338584Y-100523945D01*
X143339412Y-100518236D01*
X143339413Y-100518231D01*
X143367179Y-100326727D01*
X143367712Y-100323053D01*
X143369232Y-100265000D01*
X143357298Y-100135124D01*
X143351187Y-100068613D01*
X143351186Y-100068610D01*
X143350658Y-100062859D01*
X143345837Y-100045764D01*
X143297125Y-99873046D01*
X143297124Y-99873044D01*
X143295557Y-99867487D01*
X143287120Y-99850377D01*
X143208331Y-99690609D01*
X143205776Y-99685428D01*
X143184959Y-99657550D01*
X143087777Y-99527409D01*
X143084320Y-99522779D01*
X143009789Y-99453883D01*
X142939503Y-99388911D01*
X142935258Y-99384987D01*
X142930375Y-99381906D01*
X142930371Y-99381903D01*
X142768464Y-99279748D01*
X142763581Y-99276667D01*
X142575039Y-99201446D01*
X142569379Y-99200320D01*
X142569375Y-99200319D01*
X142381613Y-99162971D01*
X142381610Y-99162971D01*
X142375946Y-99161844D01*
X142370171Y-99161768D01*
X142370167Y-99161768D01*
X142268793Y-99160441D01*
X142172971Y-99159187D01*
X142167274Y-99160166D01*
X142167273Y-99160166D01*
X141978607Y-99192585D01*
X141972910Y-99193564D01*
X141912504Y-99215849D01*
X141817258Y-99250987D01*
X141746424Y-99255799D01*
X141684552Y-99221871D01*
X141365105Y-98902425D01*
X141331080Y-98840112D01*
X141328200Y-98813329D01*
X141328200Y-98657984D01*
X141348202Y-98589863D01*
X141401858Y-98543370D01*
X141472132Y-98533266D01*
X141536712Y-98562760D01*
X141542099Y-98567709D01*
X141561938Y-98587035D01*
X141730720Y-98699812D01*
X141736023Y-98702090D01*
X141736026Y-98702092D01*
X141824707Y-98740192D01*
X141917228Y-98779942D01*
X141990244Y-98796464D01*
X142109579Y-98823467D01*
X142109584Y-98823468D01*
X142115216Y-98824742D01*
X142120987Y-98824969D01*
X142120989Y-98824969D01*
X142180756Y-98827317D01*
X142318053Y-98832712D01*
X142418499Y-98818148D01*
X142513231Y-98804413D01*
X142513236Y-98804412D01*
X142518945Y-98803584D01*
X142524409Y-98801729D01*
X142524414Y-98801728D01*
X142705693Y-98740192D01*
X142705698Y-98740190D01*
X142711165Y-98738334D01*
X142740850Y-98721710D01*
X142785683Y-98696602D01*
X142888276Y-98639147D01*
X142950934Y-98587035D01*
X142962730Y-98577224D01*
X143027895Y-98549043D01*
X143097950Y-98560567D01*
X143150654Y-98608135D01*
X143169300Y-98674098D01*
X143169300Y-99058311D01*
X143175577Y-99075556D01*
X143181261Y-99096771D01*
X143182534Y-99103994D01*
X143182535Y-99103998D01*
X143184449Y-99114851D01*
X143189960Y-99124396D01*
X143193628Y-99130749D01*
X143202908Y-99150649D01*
X143209187Y-99167901D01*
X143220992Y-99181969D01*
X143233584Y-99199955D01*
X143242761Y-99215849D01*
X143255951Y-99226916D01*
X143256823Y-99227648D01*
X143272352Y-99243177D01*
X143284151Y-99257239D01*
X143293698Y-99262751D01*
X143300043Y-99266414D01*
X143318031Y-99279008D01*
X143332099Y-99290813D01*
X143342457Y-99294583D01*
X143346784Y-99296158D01*
X143392784Y-99325464D01*
X143755300Y-99687980D01*
X143789326Y-99750292D01*
X143784261Y-99821107D01*
X143778228Y-99834594D01*
X143777894Y-99835400D01*
X143775203Y-99840515D01*
X143715007Y-100034378D01*
X143691148Y-100235964D01*
X143704424Y-100438522D01*
X143705845Y-100444118D01*
X143705846Y-100444123D01*
X143726119Y-100523945D01*
X143754392Y-100635269D01*
X143756809Y-100640512D01*
X143794010Y-100721208D01*
X143839377Y-100819616D01*
X143956533Y-100985389D01*
X143960675Y-100989424D01*
X144012390Y-101039802D01*
X144101938Y-101127035D01*
X144270720Y-101239812D01*
X144276023Y-101242090D01*
X144276026Y-101242092D01*
X144451921Y-101317662D01*
X144457228Y-101319942D01*
X144516306Y-101333310D01*
X144649579Y-101363467D01*
X144649584Y-101363468D01*
X144655216Y-101364742D01*
X144660987Y-101364969D01*
X144660989Y-101364969D01*
X144720756Y-101367317D01*
X144858053Y-101372712D01*
X144958499Y-101358148D01*
X145053231Y-101344413D01*
X145053236Y-101344412D01*
X145058945Y-101343584D01*
X145064409Y-101341729D01*
X145064414Y-101341728D01*
X145245693Y-101280192D01*
X145245698Y-101280190D01*
X145251165Y-101278334D01*
X145428276Y-101179147D01*
X145436663Y-101172172D01*
X145524769Y-101098894D01*
X145561936Y-101067983D01*
X145627099Y-101039802D01*
X145697155Y-101051325D01*
X145749859Y-101098894D01*
X145768505Y-101164857D01*
X145768505Y-101460060D01*
X145766954Y-101479771D01*
X145763750Y-101500000D01*
X145765302Y-101509796D01*
X145765302Y-101516069D01*
X145764224Y-101532517D01*
X145759296Y-101569953D01*
X145754706Y-101604812D01*
X145746193Y-101636582D01*
X145712085Y-101718927D01*
X145695641Y-101747410D01*
X145641384Y-101818120D01*
X145618125Y-101841378D01*
X145547414Y-101895637D01*
X145518930Y-101912083D01*
X145436590Y-101946191D01*
X145404818Y-101954705D01*
X145332604Y-101964213D01*
X145316160Y-101965291D01*
X145309801Y-101965291D01*
X145300006Y-101963740D01*
X145279784Y-101966943D01*
X145260073Y-101968495D01*
X136039940Y-101968495D01*
X136020229Y-101966944D01*
X136009794Y-101965291D01*
X136009792Y-101965291D01*
X136000000Y-101963740D01*
X135990204Y-101965292D01*
X135983931Y-101965292D01*
X135967483Y-101964214D01*
X135895189Y-101954696D01*
X135863420Y-101946183D01*
X135781082Y-101912078D01*
X135752595Y-101895632D01*
X135681882Y-101841372D01*
X135658624Y-101818114D01*
X135604368Y-101747406D01*
X135587923Y-101718922D01*
X135553817Y-101636581D01*
X135545304Y-101604812D01*
X135535786Y-101532517D01*
X135534708Y-101516069D01*
X135534708Y-101509796D01*
X135536260Y-101500000D01*
X135533056Y-101479771D01*
X135531505Y-101460060D01*
X135531505Y-99392288D01*
X135551507Y-99324167D01*
X135605163Y-99277674D01*
X135675437Y-99267570D01*
X135740017Y-99297064D01*
X135741368Y-99298437D01*
X135742761Y-99300849D01*
X135748399Y-99305580D01*
X135748403Y-99305584D01*
X135772164Y-99325522D01*
X135780268Y-99332948D01*
X136135300Y-99687980D01*
X136169326Y-99750292D01*
X136164261Y-99821107D01*
X136158228Y-99834594D01*
X136157894Y-99835400D01*
X136155203Y-99840515D01*
X136095007Y-100034378D01*
X136071148Y-100235964D01*
X136084424Y-100438522D01*
X136085845Y-100444118D01*
X136085846Y-100444123D01*
X136106119Y-100523945D01*
X136134392Y-100635269D01*
X136136809Y-100640512D01*
X136174010Y-100721208D01*
X136219377Y-100819616D01*
X136336533Y-100985389D01*
X136340675Y-100989424D01*
X136392390Y-101039802D01*
X136481938Y-101127035D01*
X136650720Y-101239812D01*
X136656023Y-101242090D01*
X136656026Y-101242092D01*
X136831921Y-101317662D01*
X136837228Y-101319942D01*
X136896306Y-101333310D01*
X137029579Y-101363467D01*
X137029584Y-101363468D01*
X137035216Y-101364742D01*
X137040987Y-101364969D01*
X137040989Y-101364969D01*
X137100756Y-101367317D01*
X137238053Y-101372712D01*
X137338499Y-101358148D01*
X137433231Y-101344413D01*
X137433236Y-101344412D01*
X137438945Y-101343584D01*
X137444409Y-101341729D01*
X137444414Y-101341728D01*
X137625693Y-101280192D01*
X137625698Y-101280190D01*
X137631165Y-101278334D01*
X137808276Y-101179147D01*
X137816663Y-101172172D01*
X137959913Y-101053031D01*
X137964345Y-101049345D01*
X138094147Y-100893276D01*
X138153845Y-100786677D01*
X138190510Y-100721208D01*
X138190511Y-100721206D01*
X138193334Y-100716165D01*
X138195190Y-100710698D01*
X138195192Y-100710693D01*
X138256728Y-100529414D01*
X138256729Y-100529409D01*
X138258584Y-100523945D01*
X138259412Y-100518236D01*
X138259413Y-100518231D01*
X138275453Y-100407602D01*
X138559258Y-100407602D01*
X138561555Y-100442652D01*
X138563355Y-100454021D01*
X138613330Y-100650794D01*
X138617168Y-100661632D01*
X138702165Y-100846006D01*
X138707916Y-100855967D01*
X138825086Y-101021759D01*
X138832564Y-101030514D01*
X138977981Y-101172172D01*
X138986925Y-101179415D01*
X139155726Y-101292205D01*
X139165836Y-101297695D01*
X139352370Y-101377836D01*
X139363313Y-101381391D01*
X139561322Y-101426196D01*
X139572730Y-101427698D01*
X139574899Y-101427783D01*
X139590302Y-101423910D01*
X139590658Y-101423531D01*
X139593000Y-101413697D01*
X139593000Y-101408263D01*
X139847000Y-101408263D01*
X139850966Y-101421769D01*
X139864966Y-101423773D01*
X139988001Y-101405934D01*
X139999184Y-101403250D01*
X140191428Y-101337992D01*
X140201943Y-101333310D01*
X140379065Y-101234117D01*
X140388558Y-101227592D01*
X140544646Y-101097775D01*
X140552775Y-101089646D01*
X140682592Y-100933558D01*
X140689117Y-100924065D01*
X140788310Y-100746943D01*
X140792992Y-100736428D01*
X140858250Y-100544184D01*
X140860934Y-100533001D01*
X140878778Y-100409930D01*
X140876792Y-100395993D01*
X140863224Y-100392000D01*
X139865115Y-100392000D01*
X139849876Y-100396475D01*
X139848671Y-100397865D01*
X139847000Y-100405548D01*
X139847000Y-101408263D01*
X139593000Y-101408263D01*
X139593000Y-100410115D01*
X139588525Y-100394876D01*
X139587135Y-100393671D01*
X139579452Y-100392000D01*
X138576350Y-100392000D01*
X138561310Y-100396416D01*
X138559258Y-100407602D01*
X138275453Y-100407602D01*
X138287179Y-100326727D01*
X138287712Y-100323053D01*
X138289232Y-100265000D01*
X138277298Y-100135124D01*
X138275910Y-100120012D01*
X138561428Y-100120012D01*
X138563870Y-100134431D01*
X138576612Y-100138000D01*
X139574885Y-100138000D01*
X139590124Y-100133525D01*
X139591329Y-100132135D01*
X139593000Y-100124452D01*
X139593000Y-100119885D01*
X139847000Y-100119885D01*
X139851475Y-100135124D01*
X139852865Y-100136329D01*
X139860548Y-100138000D01*
X140862717Y-100138000D01*
X140877262Y-100133729D01*
X140879325Y-100121595D01*
X140873397Y-100057085D01*
X140871299Y-100045764D01*
X140816194Y-99850377D01*
X140812069Y-99839630D01*
X140722277Y-99657550D01*
X140716267Y-99647742D01*
X140594792Y-99485067D01*
X140587103Y-99476527D01*
X140438015Y-99338712D01*
X140428891Y-99331711D01*
X140257185Y-99223372D01*
X140246942Y-99218153D01*
X140058378Y-99142924D01*
X140047342Y-99139655D01*
X139864769Y-99103339D01*
X139851894Y-99104491D01*
X139847000Y-99119647D01*
X139847000Y-100119885D01*
X139593000Y-100119885D01*
X139593000Y-99120242D01*
X139589194Y-99107280D01*
X139574279Y-99105344D01*
X139422231Y-99131471D01*
X139411111Y-99134451D01*
X139220641Y-99204719D01*
X139210263Y-99209669D01*
X139035786Y-99313472D01*
X139026477Y-99320236D01*
X138873836Y-99454098D01*
X138865926Y-99462433D01*
X138740234Y-99621873D01*
X138733966Y-99631524D01*
X138639441Y-99811187D01*
X138635036Y-99821821D01*
X138574833Y-100015708D01*
X138572441Y-100026959D01*
X138561428Y-100120012D01*
X138275910Y-100120012D01*
X138271187Y-100068613D01*
X138271186Y-100068610D01*
X138270658Y-100062859D01*
X138265837Y-100045764D01*
X138217125Y-99873046D01*
X138217124Y-99873044D01*
X138215557Y-99867487D01*
X138207120Y-99850377D01*
X138128331Y-99690609D01*
X138125776Y-99685428D01*
X138104959Y-99657550D01*
X138007777Y-99527409D01*
X138004320Y-99522779D01*
X137929789Y-99453883D01*
X137859503Y-99388911D01*
X137855258Y-99384987D01*
X137850375Y-99381906D01*
X137850371Y-99381903D01*
X137688464Y-99279748D01*
X137683581Y-99276667D01*
X137495039Y-99201446D01*
X137489379Y-99200320D01*
X137489375Y-99200319D01*
X137301613Y-99162971D01*
X137301610Y-99162971D01*
X137295946Y-99161844D01*
X137290171Y-99161768D01*
X137290167Y-99161768D01*
X137188793Y-99160441D01*
X137092971Y-99159187D01*
X137087274Y-99160166D01*
X137087273Y-99160166D01*
X136898607Y-99192585D01*
X136892910Y-99193564D01*
X136737256Y-99250988D01*
X136666424Y-99255800D01*
X136604551Y-99221871D01*
X136367605Y-98984925D01*
X136333579Y-98922613D01*
X136330700Y-98895830D01*
X136330700Y-98721710D01*
X136350702Y-98653589D01*
X136404358Y-98607096D01*
X136474632Y-98596992D01*
X136526700Y-98616944D01*
X136650720Y-98699812D01*
X136656023Y-98702090D01*
X136656026Y-98702092D01*
X136744707Y-98740192D01*
X136837228Y-98779942D01*
X136910244Y-98796464D01*
X137029579Y-98823467D01*
X137029584Y-98823468D01*
X137035216Y-98824742D01*
X137040987Y-98824969D01*
X137040989Y-98824969D01*
X137100756Y-98827317D01*
X137238053Y-98832712D01*
X137338499Y-98818148D01*
X137433231Y-98804413D01*
X137433236Y-98804412D01*
X137438945Y-98803584D01*
X137444409Y-98801729D01*
X137444414Y-98801728D01*
X137625693Y-98740192D01*
X137625698Y-98740190D01*
X137631165Y-98738334D01*
X137660850Y-98721710D01*
X137705683Y-98696602D01*
X137808276Y-98639147D01*
X137870934Y-98587035D01*
X137959913Y-98513031D01*
X137964345Y-98509345D01*
X138094147Y-98353276D01*
X138193334Y-98176165D01*
X138195190Y-98170698D01*
X138195192Y-98170693D01*
X138256728Y-97989414D01*
X138256729Y-97989409D01*
X138258584Y-97983945D01*
X138259412Y-97978236D01*
X138259413Y-97978231D01*
X138287179Y-97786727D01*
X138287712Y-97783053D01*
X138289232Y-97725000D01*
X138270658Y-97522859D01*
X138269090Y-97517299D01*
X138217125Y-97333046D01*
X138217124Y-97333044D01*
X138215557Y-97327487D01*
X138204978Y-97306033D01*
X138128331Y-97150609D01*
X138125776Y-97145428D01*
X138004320Y-96982779D01*
X137855258Y-96844987D01*
X137850375Y-96841906D01*
X137850371Y-96841903D01*
X137688464Y-96739748D01*
X137683581Y-96736667D01*
X137631288Y-96715804D01*
X137575429Y-96671984D01*
X137552128Y-96604919D01*
X137559576Y-96555681D01*
X137560046Y-96554390D01*
X137565556Y-96544846D01*
X137572221Y-96507048D01*
X137574596Y-96496334D01*
X137584529Y-96459262D01*
X137581184Y-96421027D01*
X137580705Y-96410046D01*
X137580705Y-85325135D01*
X137600707Y-85257014D01*
X137648747Y-85215388D01*
X137647872Y-85213736D01*
X137656193Y-85209330D01*
X137665081Y-85206209D01*
X137672657Y-85200613D01*
X137680983Y-85196205D01*
X137681638Y-85197442D01*
X137739034Y-85176455D01*
X137808310Y-85191993D01*
X137823392Y-85201826D01*
X137886730Y-85249902D01*
X137901553Y-85258254D01*
X138017874Y-85304309D01*
X138033439Y-85308262D01*
X138106032Y-85317046D01*
X138113587Y-85317502D01*
X138204887Y-85317502D01*
X138220126Y-85313027D01*
X138221331Y-85311637D01*
X138223002Y-85303954D01*
X138223002Y-83399002D01*
X138243004Y-83330881D01*
X138296660Y-83284388D01*
X138349002Y-83273002D01*
X138351002Y-83273002D01*
X138419123Y-83293004D01*
G37*
%TD.AperFunction*%
%TD*%
M02*
