%TF.GenerationSoftware,KiCad,Pcbnew,6.0.9*%
%TF.CreationDate,2023-01-08T13:44:58+01:00*%
%TF.ProjectId,usd-mock-bob,7573642d-6d6f-4636-9b2d-626f622e6b69,0.1.0*%
%TF.SameCoordinates,Original*%
%TF.FileFunction,Legend,Bot*%
%TF.FilePolarity,Positive*%
%FSLAX46Y46*%
G04 Gerber Fmt 4.6, Leading zero omitted, Abs format (unit mm)*
G04 Created by KiCad (PCBNEW 6.0.9) date 2023-01-08 13:44:58*
%MOMM*%
%LPD*%
G01*
G04 APERTURE LIST*
%ADD10C,0.137500*%
G04 APERTURE END LIST*
D10*
X136486954Y-85853069D02*
X135799454Y-85853069D01*
X135799454Y-86016759D01*
X135832193Y-86114974D01*
X135897669Y-86180450D01*
X135963145Y-86213188D01*
X136094097Y-86245926D01*
X136192312Y-86245926D01*
X136323264Y-86213188D01*
X136388740Y-86180450D01*
X136454216Y-86114974D01*
X136486954Y-86016759D01*
X136486954Y-85853069D01*
X136290526Y-86507831D02*
X136290526Y-86835212D01*
X136486954Y-86442355D02*
X135799454Y-86671521D01*
X136486954Y-86900688D01*
X135799454Y-87031640D02*
X135799454Y-87424498D01*
X136486954Y-87228069D02*
X135799454Y-87228069D01*
X136290526Y-87620926D02*
X136290526Y-87948307D01*
X136486954Y-87555450D02*
X135799454Y-87784617D01*
X136486954Y-88013783D01*
X135864931Y-88210212D02*
X135832193Y-88242950D01*
X135799454Y-88308426D01*
X135799454Y-88472117D01*
X135832193Y-88537593D01*
X135864931Y-88570331D01*
X135930407Y-88603069D01*
X135995883Y-88603069D01*
X136094097Y-88570331D01*
X136486954Y-88177474D01*
X136486954Y-88603069D01*
X137593829Y-85853069D02*
X136906329Y-85853069D01*
X136906329Y-86016759D01*
X136939068Y-86114974D01*
X137004544Y-86180450D01*
X137070020Y-86213188D01*
X137200972Y-86245926D01*
X137299187Y-86245926D01*
X137430139Y-86213188D01*
X137495615Y-86180450D01*
X137561091Y-86114974D01*
X137593829Y-86016759D01*
X137593829Y-85853069D01*
X137397401Y-86507831D02*
X137397401Y-86835212D01*
X137593829Y-86442355D02*
X136906329Y-86671521D01*
X137593829Y-86900688D01*
X136906329Y-87031640D02*
X136906329Y-87424498D01*
X137593829Y-87228069D02*
X136906329Y-87228069D01*
X137397401Y-87620926D02*
X137397401Y-87948307D01*
X137593829Y-87555450D02*
X136906329Y-87784617D01*
X137593829Y-88013783D01*
X136906329Y-88177474D02*
X136906329Y-88603069D01*
X137168234Y-88373902D01*
X137168234Y-88472117D01*
X137200972Y-88537593D01*
X137233710Y-88570331D01*
X137299187Y-88603069D01*
X137462877Y-88603069D01*
X137528353Y-88570331D01*
X137561091Y-88537593D01*
X137593829Y-88472117D01*
X137593829Y-88275688D01*
X137561091Y-88210212D01*
X137528353Y-88177474D01*
X138045943Y-86213188D02*
X138013204Y-86147712D01*
X138013204Y-86049498D01*
X138045943Y-85951283D01*
X138111419Y-85885807D01*
X138176895Y-85853069D01*
X138307847Y-85820331D01*
X138406062Y-85820331D01*
X138537014Y-85853069D01*
X138602490Y-85885807D01*
X138667966Y-85951283D01*
X138700704Y-86049498D01*
X138700704Y-86114974D01*
X138667966Y-86213188D01*
X138635228Y-86245926D01*
X138406062Y-86245926D01*
X138406062Y-86114974D01*
X138700704Y-86540569D02*
X138013204Y-86540569D01*
X138700704Y-86933426D01*
X138013204Y-86933426D01*
X138700704Y-87260807D02*
X138013204Y-87260807D01*
X138013204Y-87424498D01*
X138045943Y-87522712D01*
X138111419Y-87588188D01*
X138176895Y-87620926D01*
X138307847Y-87653664D01*
X138406062Y-87653664D01*
X138537014Y-87620926D01*
X138602490Y-87588188D01*
X138667966Y-87522712D01*
X138700704Y-87424498D01*
X138700704Y-87260807D01*
X139742103Y-86245926D02*
X139774841Y-86213188D01*
X139807579Y-86114974D01*
X139807579Y-86049498D01*
X139774841Y-85951283D01*
X139709365Y-85885807D01*
X139643889Y-85853069D01*
X139512937Y-85820331D01*
X139414722Y-85820331D01*
X139283770Y-85853069D01*
X139218294Y-85885807D01*
X139152818Y-85951283D01*
X139120079Y-86049498D01*
X139120079Y-86114974D01*
X139152818Y-86213188D01*
X139185556Y-86245926D01*
X139807579Y-86867950D02*
X139807579Y-86540569D01*
X139120079Y-86540569D01*
X139807579Y-87097117D02*
X139120079Y-87097117D01*
X139807579Y-87489974D02*
X139414722Y-87195331D01*
X139120079Y-87489974D02*
X139512937Y-87097117D01*
X139087341Y-88799498D02*
X139971270Y-88210212D01*
X139120079Y-89454259D02*
X139120079Y-89847117D01*
X139807579Y-89650688D02*
X139120079Y-89650688D01*
X139807579Y-90076283D02*
X139120079Y-90076283D01*
X139611151Y-90305450D01*
X139120079Y-90534617D01*
X139807579Y-90534617D01*
X139774841Y-90829259D02*
X139807579Y-90927474D01*
X139807579Y-91091164D01*
X139774841Y-91156640D01*
X139742103Y-91189379D01*
X139676627Y-91222117D01*
X139611151Y-91222117D01*
X139545675Y-91189379D01*
X139512937Y-91156640D01*
X139480198Y-91091164D01*
X139447460Y-90960212D01*
X139414722Y-90894736D01*
X139381984Y-90861998D01*
X139316508Y-90829259D01*
X139251032Y-90829259D01*
X139185556Y-90861998D01*
X139152818Y-90894736D01*
X139120079Y-90960212D01*
X139120079Y-91123902D01*
X139152818Y-91222117D01*
X140226954Y-85787593D02*
X140226954Y-86213188D01*
X140488859Y-85984021D01*
X140488859Y-86082236D01*
X140521597Y-86147712D01*
X140554335Y-86180450D01*
X140619812Y-86213188D01*
X140783502Y-86213188D01*
X140848978Y-86180450D01*
X140881716Y-86147712D01*
X140914454Y-86082236D01*
X140914454Y-85885807D01*
X140881716Y-85820331D01*
X140848978Y-85787593D01*
X140848978Y-86507831D02*
X140881716Y-86540569D01*
X140914454Y-86507831D01*
X140881716Y-86475093D01*
X140848978Y-86507831D01*
X140914454Y-86507831D01*
X140226954Y-86769736D02*
X140226954Y-87195331D01*
X140488859Y-86966164D01*
X140488859Y-87064379D01*
X140521597Y-87129855D01*
X140554335Y-87162593D01*
X140619812Y-87195331D01*
X140783502Y-87195331D01*
X140848978Y-87162593D01*
X140881716Y-87129855D01*
X140914454Y-87064379D01*
X140914454Y-86867950D01*
X140881716Y-86802474D01*
X140848978Y-86769736D01*
X140226954Y-87391759D02*
X140914454Y-87620926D01*
X140226954Y-87850093D01*
X141955853Y-86245926D02*
X141988591Y-86213188D01*
X142021329Y-86114974D01*
X142021329Y-86049498D01*
X141988591Y-85951283D01*
X141923115Y-85885807D01*
X141857639Y-85853069D01*
X141726687Y-85820331D01*
X141628472Y-85820331D01*
X141497520Y-85853069D01*
X141432044Y-85885807D01*
X141366568Y-85951283D01*
X141333829Y-86049498D01*
X141333829Y-86114974D01*
X141366568Y-86213188D01*
X141399306Y-86245926D01*
X142021329Y-86540569D02*
X141333829Y-86540569D01*
X141824901Y-86769736D01*
X141333829Y-86998902D01*
X142021329Y-86998902D01*
X142021329Y-87326283D02*
X141333829Y-87326283D01*
X141333829Y-87489974D01*
X141366568Y-87588188D01*
X141432044Y-87653664D01*
X141497520Y-87686402D01*
X141628472Y-87719140D01*
X141726687Y-87719140D01*
X141857639Y-87686402D01*
X141923115Y-87653664D01*
X141988591Y-87588188D01*
X142021329Y-87489974D01*
X142021329Y-87326283D01*
X141301091Y-89028664D02*
X142185020Y-88439379D01*
X141333829Y-89683426D02*
X141333829Y-90076283D01*
X142021329Y-89879855D02*
X141333829Y-89879855D01*
X142021329Y-90305450D02*
X141333829Y-90305450D01*
X141333829Y-90469140D01*
X141366568Y-90567355D01*
X141432044Y-90632831D01*
X141497520Y-90665569D01*
X141628472Y-90698307D01*
X141726687Y-90698307D01*
X141857639Y-90665569D01*
X141923115Y-90632831D01*
X141988591Y-90567355D01*
X142021329Y-90469140D01*
X142021329Y-90305450D01*
X141333829Y-91123902D02*
X141333829Y-91254855D01*
X141366568Y-91320331D01*
X141432044Y-91385807D01*
X141562996Y-91418545D01*
X141792163Y-91418545D01*
X141923115Y-91385807D01*
X141988591Y-91320331D01*
X142021329Y-91254855D01*
X142021329Y-91123902D01*
X141988591Y-91058426D01*
X141923115Y-90992950D01*
X141792163Y-90960212D01*
X141562996Y-90960212D01*
X141432044Y-90992950D01*
X141366568Y-91058426D01*
X141333829Y-91123902D01*
X143128204Y-85853069D02*
X142440704Y-85853069D01*
X142440704Y-86016759D01*
X142473443Y-86114974D01*
X142538919Y-86180450D01*
X142604395Y-86213188D01*
X142735347Y-86245926D01*
X142833562Y-86245926D01*
X142964514Y-86213188D01*
X143029990Y-86180450D01*
X143095466Y-86114974D01*
X143128204Y-86016759D01*
X143128204Y-85853069D01*
X142931776Y-86507831D02*
X142931776Y-86835212D01*
X143128204Y-86442355D02*
X142440704Y-86671521D01*
X143128204Y-86900688D01*
X142440704Y-87031640D02*
X142440704Y-87424498D01*
X143128204Y-87228069D02*
X142440704Y-87228069D01*
X142931776Y-87620926D02*
X142931776Y-87948307D01*
X143128204Y-87555450D02*
X142440704Y-87784617D01*
X143128204Y-88013783D01*
X142440704Y-88177474D02*
X142440704Y-88603069D01*
X142702609Y-88373902D01*
X142702609Y-88472117D01*
X142735347Y-88537593D01*
X142768085Y-88570331D01*
X142833562Y-88603069D01*
X142997252Y-88603069D01*
X143062728Y-88570331D01*
X143095466Y-88537593D01*
X143128204Y-88472117D01*
X143128204Y-88275688D01*
X143095466Y-88210212D01*
X143062728Y-88177474D01*
X142407966Y-89912593D02*
X143291895Y-89323307D01*
X142440704Y-90567355D02*
X142440704Y-90960212D01*
X143128204Y-90763783D02*
X142440704Y-90763783D01*
X143062728Y-91582236D02*
X143095466Y-91549498D01*
X143128204Y-91451283D01*
X143128204Y-91385807D01*
X143095466Y-91287593D01*
X143029990Y-91222117D01*
X142964514Y-91189379D01*
X142833562Y-91156640D01*
X142735347Y-91156640D01*
X142604395Y-91189379D01*
X142538919Y-91222117D01*
X142473443Y-91287593D01*
X142440704Y-91385807D01*
X142440704Y-91451283D01*
X142473443Y-91549498D01*
X142506181Y-91582236D01*
X143128204Y-91876879D02*
X142440704Y-91876879D01*
X143128204Y-92269736D02*
X142735347Y-91975093D01*
X142440704Y-92269736D02*
X142833562Y-91876879D01*
X144235079Y-85853069D02*
X143547579Y-85853069D01*
X143547579Y-86016759D01*
X143580318Y-86114974D01*
X143645794Y-86180450D01*
X143711270Y-86213188D01*
X143842222Y-86245926D01*
X143940437Y-86245926D01*
X144071389Y-86213188D01*
X144136865Y-86180450D01*
X144202341Y-86114974D01*
X144235079Y-86016759D01*
X144235079Y-85853069D01*
X144038651Y-86507831D02*
X144038651Y-86835212D01*
X144235079Y-86442355D02*
X143547579Y-86671521D01*
X144235079Y-86900688D01*
X143547579Y-87031640D02*
X143547579Y-87424498D01*
X144235079Y-87228069D02*
X143547579Y-87228069D01*
X144038651Y-87620926D02*
X144038651Y-87948307D01*
X144235079Y-87555450D02*
X143547579Y-87784617D01*
X144235079Y-88013783D01*
X143613056Y-88210212D02*
X143580318Y-88242950D01*
X143547579Y-88308426D01*
X143547579Y-88472117D01*
X143580318Y-88537593D01*
X143613056Y-88570331D01*
X143678532Y-88603069D01*
X143744008Y-88603069D01*
X143842222Y-88570331D01*
X144235079Y-88177474D01*
X144235079Y-88603069D01*
X143514841Y-89912593D02*
X144398770Y-89323307D01*
X143547579Y-90567355D02*
X143547579Y-90960212D01*
X144235079Y-90763783D02*
X143547579Y-90763783D01*
X144235079Y-91189379D02*
X143547579Y-91189379D01*
X143547579Y-91353069D01*
X143580318Y-91451283D01*
X143645794Y-91516759D01*
X143711270Y-91549498D01*
X143842222Y-91582236D01*
X143940437Y-91582236D01*
X144071389Y-91549498D01*
X144136865Y-91516759D01*
X144202341Y-91451283D01*
X144235079Y-91353069D01*
X144235079Y-91189379D01*
X144235079Y-91876879D02*
X143547579Y-91876879D01*
M02*
